<svg width="32" height="32" viewBox="0 0 32 32" fill="none" xmlns="http://www.w3.org/2000/svg">
<path d="M8.01501 17.4781C8.0184 17.5459 8.00798 17.6136 7.98438 17.6771C7.96077 17.7407 7.92448 17.7988 7.87771 17.8479C7.83094 17.8971 7.77466 17.9361 7.71231 17.9628C7.64996 17.9895 7.58283 18.0032 7.51501 18.0031H2.00001C1.77431 18.0035 1.55512 17.9274 1.37811 17.7874C1.20109 17.6474 1.07664 17.4516 1.02501 17.2319C0.992865 17.0815 0.994347 16.9258 1.02935 16.7761C1.06436 16.6263 1.13203 16.4862 1.22751 16.3656C2.10977 15.1956 3.28038 14.2744 4.62501 13.6919C4.03467 13.1536 3.5819 12.4818 3.30461 11.7325C3.02732 10.9833 2.9336 10.1786 3.03128 9.38568C3.12897 8.5928 3.41522 7.83486 3.86606 7.17535C4.31691 6.51584 4.91922 5.97396 5.62255 5.5951C6.32588 5.21623 7.10976 5.01142 7.90852 4.9978C8.70729 4.98418 9.49769 5.16216 10.2135 5.51682C10.9294 5.87149 11.5498 6.39252 12.0229 7.03628C12.4959 7.68003 12.8079 8.42777 12.9325 9.21687C12.9486 9.32298 12.9296 9.43145 12.8784 9.52577C12.8272 9.62009 12.7465 9.69509 12.6488 9.73937C11.2618 10.3806 10.0871 11.4052 9.2634 12.6922C8.4397 13.9793 8.00133 15.4751 8.00001 17.0031C8.00001 17.1631 8.00001 17.3206 8.01501 17.4781ZM30.765 16.3644C29.8848 15.1957 28.7169 14.275 27.375 13.6919C27.9654 13.1536 28.4181 12.4818 28.6954 11.7325C28.9727 10.9833 29.0664 10.1786 28.9687 9.38568C28.8711 8.5928 28.5848 7.83486 28.134 7.17535C27.6831 6.51584 27.0808 5.97396 26.3775 5.5951C25.6741 5.21623 24.8903 5.01142 24.0915 4.9978C23.2927 4.98418 22.5023 5.16216 21.7865 5.51682C21.0707 5.87149 20.4502 6.39252 19.9772 7.03628C19.5041 7.68003 19.1922 8.42777 19.0675 9.21687C19.0514 9.32298 19.0704 9.43145 19.1216 9.52577C19.1729 9.62009 19.2535 9.69509 19.3513 9.73937C20.7383 10.3806 21.9129 11.4052 22.7366 12.6922C23.5603 13.9793 23.9987 15.4751 24 17.0031C24 17.1631 24 17.3206 23.985 17.4781C23.9816 17.5459 23.992 17.6136 24.0157 17.6771C24.0393 17.7407 24.0755 17.7988 24.1223 17.8479C24.1691 17.8971 24.2254 17.9361 24.2877 17.9628C24.3501 17.9895 24.4172 18.0032 24.485 18.0031H30C30.2257 18.0035 30.4449 17.9274 30.6219 17.7874C30.7989 17.6474 30.9234 17.4516 30.975 17.2319C31.0074 17.0812 31.0059 16.9252 30.9706 16.7752C30.9354 16.6252 30.8673 16.4849 30.7713 16.3644H30.765ZM19.64 21.7619C20.6357 20.9993 21.3674 19.944 21.7323 18.7441C22.0972 17.5442 22.0769 16.2601 21.6744 15.0724C21.2718 13.8846 20.5071 12.8528 19.4879 12.1221C18.4686 11.3913 17.246 10.9983 15.9919 10.9983C14.7377 10.9983 13.5151 11.3913 12.4959 12.1221C11.4766 12.8528 10.712 13.8846 10.3094 15.0724C9.90683 16.2601 9.88657 17.5442 10.2515 18.7441C10.6164 19.944 11.3481 20.9993 12.3438 21.7619C10.5769 22.5274 9.1016 23.8385 8.13376 25.5031C8.04599 25.6552 7.99978 25.8276 7.99979 26.0032C7.9998 26.1787 8.04603 26.3512 8.13382 26.5032C8.22161 26.6552 8.34788 26.7815 8.49993 26.8692C8.65199 26.957 8.82446 27.0032 9.00001 27.0031H23C23.1756 27.0032 23.348 26.957 23.5001 26.8692C23.6521 26.7815 23.7784 26.6552 23.8662 26.5032C23.954 26.3512 24.0002 26.1787 24.0002 26.0032C24.0002 25.8276 23.954 25.6552 23.8663 25.5031C22.8964 23.8374 21.4183 22.5262 19.6488 21.7619H19.64Z" fill="url(#paint0_linear_2230_442)"/>
<defs>
<linearGradient id="paint0_linear_2230_442" x1="1.00195" y1="16.0001" x2="30.9982" y2="16.0001" gradientUnits="userSpaceOnUse">
<stop stop-color="#FC4A1A"/>
<stop offset="1" stop-color="#F7B733"/>
</linearGradient>
</defs>
</svg>
